<svg width="20" height="20" viewBox="0 0 20 20" fill="none" xmlns="http://www.w3.org/2000/svg">
<path d="M11.2487 19.3737L11.2487 17.2041C11.2487 17.0809 11.1951 16.963 11.1013 16.88L4.3433 11.0166L19.4263 11.0166C19.5442 11.0166 19.6406 10.9202 19.6406 10.8023L19.6406 9.19517C19.6406 9.07731 19.5442 8.98089 19.4263 8.98089L4.3433 8.98088L11.1013 3.11749C11.1951 3.03713 11.2487 2.91928 11.2487 2.79338L11.2487 0.623742C11.2487 0.441599 11.0317 0.342492 10.8951 0.463027L0.649553 9.35321C0.556844 9.43357 0.482492 9.53292 0.431535 9.64453C0.380577 9.75613 0.354206 9.87739 0.354206 10.0001C0.354206 10.1228 0.380577 10.244 0.431535 10.3556C0.482492 10.4672 0.556844 10.5666 0.649553 10.647L10.8951 19.5345C11.0344 19.655 11.2487 19.5559 11.2487 19.3737Z" fill="black" fill-opacity="0.85"/>
</svg>
