<svg width="22" height="22" viewBox="0 0 22 22" fill="none" xmlns="http://www.w3.org/2000/svg">
<path d="M8.57367 19.2487C9.22004 19.8192 10.0691 20.1654 10.999 20.1654C11.9289 20.1654 12.778 19.8192 13.4243 19.2487M2.10174 5.3336C2.08859 4.0032 2.80586 2.76084 3.9646 2.10703M19.8926 5.3336C19.9058 4.0032 19.1885 2.76085 18.0298 2.10703M16.499 7.33203C16.499 5.87334 15.9195 4.47439 14.8881 3.44294C13.8566 2.41149 12.4577 1.83203 10.999 1.83203C9.54032 1.83203 8.14137 2.41149 7.10992 3.44294C6.07847 4.47439 5.49901 5.87334 5.49901 7.33203C5.49901 10.1647 4.78444 12.1042 3.9862 13.387C3.31287 14.4691 2.97621 15.0101 2.98856 15.1611C3.00222 15.3282 3.03763 15.3919 3.1723 15.4918C3.29393 15.582 3.84222 15.582 4.93879 15.582H17.0592C18.1558 15.582 18.7041 15.582 18.8257 15.4918C18.9604 15.3919 18.9958 15.3282 19.0095 15.1611C19.0218 15.0101 18.6851 14.4691 18.0118 13.387C17.2136 12.1042 16.499 10.1647 16.499 7.33203Z" stroke="black" stroke-width="2" stroke-linecap="round" stroke-linejoin="round"/>
</svg>
