<svg width="33" height="27" viewBox="0 0 33 27" fill="none" xmlns="http://www.w3.org/2000/svg">
<path d="M10.3335 7.33464V5.79297M10.3335 14.2721V12.7305M10.3335 21.2096V19.668M8.4835 25.8346H24.5168C27.1071 25.8346 28.4022 25.8346 29.3915 25.3305C30.2618 24.8871 30.9693 24.1796 31.4127 23.3093C31.9168 22.32 31.9168 21.0249 31.9168 18.4346V8.56797C31.9168 5.97773 31.9168 4.6826 31.4127 3.69326C30.9693 2.82301 30.2618 2.11548 29.3915 1.67206C28.4022 1.16797 27.1071 1.16797 24.5168 1.16797H8.4835C5.89325 1.16797 4.59813 1.16797 3.60879 1.67206C2.73854 2.11548 2.03101 2.82301 1.58759 3.69326C1.0835 4.6826 1.0835 5.97773 1.0835 8.56797V18.4346C1.0835 21.0249 1.0835 22.32 1.58759 23.3093C2.03101 24.1796 2.73854 24.8871 3.60879 25.3305C4.59813 25.8346 5.89325 25.8346 8.4835 25.8346Z" stroke="#0056A7" stroke-width="2" stroke-linecap="round" stroke-linejoin="round"/>
</svg>
