<svg width="18" height="5" viewBox="0 0 18 5" fill="none" xmlns="http://www.w3.org/2000/svg">
<path d="M9 3.33203C9.55228 3.33203 10 2.88432 10 2.33203C10 1.77975 9.55228 1.33203 9 1.33203C8.44772 1.33203 8 1.77975 8 2.33203C8 2.88432 8.44772 3.33203 9 3.33203Z" stroke="black" stroke-width="2" stroke-linecap="round" stroke-linejoin="round"/>
<path d="M16 3.33203C16.5523 3.33203 17 2.88432 17 2.33203C17 1.77975 16.5523 1.33203 16 1.33203C15.4477 1.33203 15 1.77975 15 2.33203C15 2.88432 15.4477 3.33203 16 3.33203Z" stroke="black" stroke-width="2" stroke-linecap="round" stroke-linejoin="round"/>
<path d="M2 3.33203C2.55228 3.33203 3 2.88432 3 2.33203C3 1.77975 2.55228 1.33203 2 1.33203C1.44772 1.33203 1 1.77975 1 2.33203C1 2.88432 1.44772 3.33203 2 3.33203Z" stroke="black" stroke-width="2" stroke-linecap="round" stroke-linejoin="round"/>
</svg>
