<svg width="20" height="20" viewBox="0 0 20 20" fill="none" xmlns="http://www.w3.org/2000/svg">
<path opacity="0.3" d="M13.4498 3.99914C13.403 2.9487 12.9445 1.95893 12.1734 1.24402C11.4024 0.52911 10.3808 0.146557 9.32984 0.179144H4.99984C3.94208 0.135765 2.91025 0.513482 2.13048 1.22952C1.35071 1.94556 0.886594 2.94152 0.839844 3.99914V15.9991C0.884021 17.0585 1.34702 18.057 2.12707 18.7752C2.90713 19.4934 3.94042 19.8725 4.99984 19.8291H9.36984C10.4157 19.851 11.4284 19.4623 12.1911 18.7464C12.9537 18.0305 13.4056 17.0443 13.4498 15.9991V3.99914Z" fill="#181C32"/>
<path d="M6.69141 9.25169H16.6014L15.0014 7.61169C14.861 7.47107 14.7821 7.28045 14.7821 7.08169C14.7821 6.88294 14.861 6.69232 15.0014 6.55169C15.0704 6.48094 15.1528 6.4247 15.2438 6.3863C15.3348 6.34791 15.4326 6.32812 15.5314 6.32812C15.6302 6.32813 15.728 6.34791 15.819 6.3863C15.91 6.4247 15.9925 6.48094 16.0614 6.55169L18.9914 9.47169C19.1319 9.61232 19.2107 9.80294 19.2107 10.0017C19.2107 10.2004 19.1319 10.3911 18.9914 10.5317L16.0014 13.4517C15.9325 13.5223 15.85 13.5781 15.7589 13.616C15.6678 13.6538 15.57 13.6727 15.4714 13.6717C15.3729 13.6722 15.2752 13.6529 15.1842 13.6152C15.0932 13.5774 15.0107 13.5218 14.9414 13.4517C14.801 13.3111 14.7221 13.1204 14.7221 12.9217C14.7221 12.7229 14.801 12.5323 14.9414 12.3917L16.5914 10.7517H6.69141C6.49249 10.7517 6.30173 10.6727 6.16108 10.532C6.02042 10.3914 5.94141 10.2006 5.94141 10.0017C5.94141 9.80278 6.02042 9.61202 6.16108 9.47136C6.30173 9.33071 6.49249 9.25169 6.69141 9.25169Z" fill="#181C32"/>
</svg>
