<svg width="86" height="86" viewBox="0 0 86 86" fill="none" xmlns="http://www.w3.org/2000/svg">
<path d="M43.0002 84.6654C66.012 84.6654 84.6668 66.0106 84.6668 42.9987C84.6668 19.9868 66.012 1.33203 43.0002 1.33203C19.9883 1.33203 1.3335 19.9868 1.3335 42.9987C1.3335 66.0106 19.9883 84.6654 43.0002 84.6654Z" stroke="white" stroke-width="2" stroke-linecap="round" stroke-linejoin="round"/>
<path d="M32.5835 30.3542C32.5835 28.3656 32.5835 27.3712 32.9991 26.8161C33.3613 26.3323 33.9156 26.0297 34.5184 25.9866C35.2101 25.9372 36.0465 26.4749 37.7194 27.5503L57.3885 40.1948C58.8401 41.1279 59.5659 41.5945 59.8166 42.1878C60.0356 42.7062 60.0356 43.2912 59.8166 43.8096C59.5659 44.4029 58.8401 44.8694 57.3885 45.8026L37.7194 58.4471C36.0465 59.5225 35.2101 60.0602 34.5184 60.0108C33.9156 59.9677 33.3613 59.665 32.9991 59.1813C32.5835 58.6262 32.5835 57.6318 32.5835 55.6431V30.3542Z" stroke="white" stroke-width="2" stroke-linecap="round" stroke-linejoin="round"/>
</svg>
