<svg width="18" height="16" viewBox="0 0 18 16" fill="none" xmlns="http://www.w3.org/2000/svg">
<path opacity="0.3" d="M15.818 5.7006H14.6597C14.4532 5.18221 14.1725 4.69657 13.8263 4.25893L14.393 3.2756C14.5957 2.92049 14.65 2.49964 14.5438 2.10474C14.4377 1.70984 14.1798 1.37288 13.8263 1.16727L12.468 0.383933C12.2924 0.282433 12.0985 0.216571 11.8975 0.19012C11.6964 0.16367 11.4921 0.177151 11.2962 0.229791C11.1004 0.28243 10.9169 0.373194 10.7561 0.496883C10.5954 0.620572 10.4607 0.774755 10.3597 0.9506L9.78466 1.9506C9.52526 1.91151 9.2636 1.88924 9.00133 1.88393C8.73923 1.88648 8.47757 1.90597 8.21799 1.94227L7.65966 0.9506C7.45844 0.594872 7.1242 0.3336 6.73041 0.224216C6.33663 0.114831 5.91552 0.166284 5.55966 0.367266L4.19299 1.14227C3.83726 1.34349 3.57599 1.67773 3.46661 2.07151C3.35722 2.4653 3.40868 2.8864 3.60966 3.24227L4.17633 4.2506C3.83509 4.68553 3.55473 5.16494 3.34299 5.6756H2.21799C2.01493 5.67227 1.81325 5.70953 1.62478 5.7852C1.43631 5.86086 1.26486 5.97341 1.12048 6.11624C0.976095 6.25907 0.861697 6.4293 0.783996 6.61694C0.706295 6.80458 0.666856 7.00585 0.667993 7.20893V8.7756C0.666895 8.97806 0.705686 9.17874 0.78215 9.36621C0.858614 9.55367 0.971253 9.72424 1.11364 9.86817C1.25602 10.0121 1.42536 10.1266 1.61199 10.2051C1.79861 10.2836 1.99887 10.3245 2.20133 10.3256H3.34299C3.55182 10.8377 3.8324 11.3175 4.17633 11.7506L3.60133 12.7339C3.50002 12.9089 3.43431 13.1021 3.40797 13.3025C3.38163 13.503 3.39518 13.7066 3.44784 13.9018C3.50051 14.097 3.59125 14.2798 3.71484 14.4398C3.83843 14.5997 3.99244 14.7337 4.16799 14.8339L5.52633 15.6256C5.7019 15.7271 5.89577 15.793 6.09684 15.8194C6.29791 15.8459 6.50222 15.8324 6.69808 15.7797C6.89393 15.7271 7.07747 15.6363 7.23818 15.5126C7.3989 15.389 7.53363 15.2348 7.63466 15.0589L8.20966 14.0589C8.47159 14.0993 8.73631 14.1188 9.00133 14.1173C9.28004 14.1151 9.55835 14.0956 9.83466 14.0589L10.4013 15.0423C10.5016 15.2178 10.6355 15.3718 10.7955 15.4954C10.9555 15.619 11.1383 15.7097 11.3335 15.7624C11.5286 15.8151 11.7323 15.8286 11.9327 15.8023C12.1331 15.776 12.3264 15.7102 12.5013 15.6089L13.8597 14.8256C14.0359 14.7261 14.1907 14.5926 14.3151 14.433C14.4396 14.2733 14.5311 14.0906 14.5846 13.8954C14.6381 13.7001 14.6523 13.4963 14.6266 13.2955C14.6009 13.0947 14.5356 12.901 14.4347 12.7256L13.8597 11.7256C14.1938 11.3009 14.4737 10.8362 14.693 10.3423H15.818C16.2155 10.3318 16.594 10.1698 16.876 9.88941C17.1579 9.60899 17.322 9.23139 17.3347 8.83393V7.25893C17.3391 6.85147 17.1821 6.45882 16.8979 6.16681C16.6137 5.8748 16.2254 5.70718 15.818 5.7006Z" fill="#A1A5B7"/>
<path d="M8.99349 10.7096C10.4893 10.7096 11.7018 9.49707 11.7018 8.0013C11.7018 6.50553 10.4893 5.29297 8.99349 5.29297C7.49772 5.29297 6.28516 6.50553 6.28516 8.0013C6.28516 9.49707 7.49772 10.7096 8.99349 10.7096Z" fill="#A1A5B7"/>
</svg>
