<svg width="12" height="10" viewBox="0 0 12 10" fill="none" xmlns="http://www.w3.org/2000/svg">
<path d="M0 1C0 0.447715 0.447715 0 1 0H11C11.5523 0 12 0.447715 12 1C12 1.55228 11.5523 2 11 2H1C0.447715 2 0 1.55228 0 1Z" fill="#171D27"/>
<path d="M2 5C2 4.44772 2.44772 4 3 4H9C9.55229 4 10 4.44772 10 5C10 5.55228 9.55229 6 9 6H3C2.44772 6 2 5.55228 2 5Z" fill="#171D27"/>
<path d="M5 8C4.44772 8 4 8.44771 4 9C4 9.55229 4.44772 10 5 10H7C7.55228 10 8 9.55229 8 9C8 8.44771 7.55228 8 7 8H5Z" fill="#171D27"/>
</svg>
