<svg width="21" height="21" viewBox="0 0 21 21" fill="none" xmlns="http://www.w3.org/2000/svg">
<path d="M4.8129 20.2302V7.22651H0.473318V20.2302H4.81335H4.8129ZM2.64401 5.45139C4.157 5.45139 5.09893 4.45286 5.09893 3.20498C5.07061 1.92867 4.157 0.958008 2.67279 0.958008C1.18756 0.958008 0.217529 1.92867 0.217529 3.20487C0.217529 4.45275 1.15912 5.45127 2.61558 5.45127H2.64367L2.64401 5.45139ZM7.21491 20.2302H11.5541V12.9691C11.5541 12.581 11.5825 12.1919 11.6971 11.9146C12.0107 11.1378 12.7247 10.3337 13.9238 10.3337C15.4936 10.3337 16.122 11.5261 16.122 13.2743V20.2302H20.4611V12.7743C20.4611 8.78027 18.3206 6.92165 15.4655 6.92165C13.1248 6.92165 12.0968 8.2247 11.5256 9.11221H11.5545V7.22696H7.21514C7.27178 8.44686 7.2148 20.2306 7.2148 20.2306L7.21491 20.2302Z" fill="white"/>
</svg>
