<svg width="20" height="17" viewBox="0 0 20 17" fill="none" xmlns="http://www.w3.org/2000/svg">
<path opacity="0.3" d="M19.2499 12.4367H2.61992L4.05992 10.9967C4.18946 10.8625 4.26185 10.6832 4.26185 10.4967C4.26185 10.3102 4.18946 10.1309 4.05992 9.99668C3.9193 9.85623 3.72867 9.77734 3.52992 9.77734C3.33117 9.77734 3.14055 9.85623 2.99992 9.99668L0.279922 12.6867C0.158949 12.8252 0.0922852 13.0028 0.0922852 13.1867C0.0922852 13.3706 0.158949 13.5482 0.279922 13.6867L2.99992 16.6967C3.07166 16.7732 3.15844 16.834 3.25482 16.8753C3.35119 16.9166 3.45507 16.9375 3.55992 16.9367C3.74579 16.9352 3.92429 16.8638 4.05992 16.7367C4.19798 16.5948 4.27522 16.4046 4.27522 16.2067C4.27522 16.0087 4.19798 15.8186 4.05992 15.6767L2.52992 13.9967H19.2499C19.4488 13.9967 19.6396 13.9177 19.7803 13.777C19.9209 13.6364 19.9999 13.4456 19.9999 13.2467C19.9999 13.0478 19.9209 12.857 19.7803 12.7164C19.6396 12.5757 19.4488 12.4967 19.2499 12.4967V12.4367Z" fill="#3E97FF"/>
<path d="M19.78 3.20818L17 0.358177C16.8658 0.228641 16.6865 0.15625 16.5 0.15625C16.3135 0.15625 16.1342 0.228641 16 0.358177C15.877 0.495682 15.809 0.673694 15.809 0.858177C15.809 1.04266 15.877 1.22067 16 1.35818L17.48 2.85818H0.790007C0.607292 2.87938 0.43874 2.96699 0.316401 3.10435C0.194061 3.24171 0.126465 3.41924 0.126465 3.60318C0.126465 3.78712 0.194061 3.96464 0.316401 4.102C0.43874 4.23936 0.607292 4.32697 0.790007 4.34818H17.56L16.07 5.84818C15.9658 5.95246 15.8947 6.08512 15.8655 6.2296C15.8363 6.37408 15.8503 6.52397 15.9057 6.66053C15.9612 6.7971 16.0557 6.91429 16.1774 6.99746C16.2991 7.08063 16.4426 7.1261 16.59 7.12818C16.7704 7.15284 16.9534 7.1062 17.1 6.99818L19.78 4.30818C19.8533 4.23508 19.9108 4.14758 19.9486 4.0512C19.9865 3.95483 20.004 3.85165 20 3.74818C19.9982 3.54671 19.9195 3.35354 19.78 3.20818Z" fill="#3E97FF"/>
</svg>
