<svg width="23" height="20" viewBox="0 0 23 20" fill="none" xmlns="http://www.w3.org/2000/svg">
<path d="M4.14949 4.55431H5.2379C5.81523 4.55431 6.36892 4.32496 6.77715 3.91673C7.18539 3.50849 7.41473 2.95481 7.41473 2.37748C7.41473 2.08881 7.5294 1.81197 7.73352 1.60785C7.93764 1.40373 8.21448 1.28906 8.50314 1.28906H15.0336C15.3223 1.28906 15.5991 1.40373 15.8033 1.60785C16.0074 1.81197 16.122 2.08881 16.122 2.37748C16.122 2.95481 16.3514 3.50849 16.7596 3.91673C17.1679 4.32496 17.7215 4.55431 18.2989 4.55431H19.3873C19.9646 4.55431 20.5183 4.78365 20.9265 5.19188C21.3348 5.60012 21.5641 6.1538 21.5641 6.73114V16.5269C21.5641 17.1042 21.3348 17.6579 20.9265 18.0661C20.5183 18.4744 19.9646 18.7037 19.3873 18.7037H4.14949C3.57215 18.7037 3.01847 18.4744 2.61023 18.0661C2.202 17.6579 1.97266 17.1042 1.97266 16.5269V6.73114C1.97266 6.1538 2.202 5.60012 2.61023 5.19188C3.01847 4.78365 3.57215 4.55431 4.14949 4.55431Z" stroke="#3E97FF" stroke-width="2" stroke-linecap="round" stroke-linejoin="round"/>
<path d="M8.50391 11.0856C8.50391 11.9516 8.84792 12.7821 9.46027 13.3944C10.0726 14.0068 10.9032 14.3508 11.7692 14.3508C12.6351 14.3508 13.4657 14.0068 14.078 13.3944C14.6904 12.7821 15.0344 11.9516 15.0344 11.0856C15.0344 10.2196 14.6904 9.38903 14.078 8.77668C13.4657 8.16433 12.6351 7.82031 11.7692 7.82031C10.9032 7.82031 10.0726 8.16433 9.46027 8.77668C8.84792 9.38903 8.50391 10.2196 8.50391 11.0856Z" stroke="#3E97FF" stroke-width="2" stroke-linecap="round" stroke-linejoin="round"/>
</svg>
