<svg width="40" height="32" viewBox="0 0 40 32" fill="none" xmlns="http://www.w3.org/2000/svg">
<path d="M6.625 17.875H12.25M1 10.375L4.75 12.25L7.13246 5.10263C7.62422 3.62735 7.8701 2.8897 8.32617 2.34434C8.7289 1.86275 9.24609 1.48998 9.83032 1.2602C10.4919 1 11.2695 1 12.8246 1H26.6754C28.2305 1 29.0081 1 29.6697 1.2602C30.2539 1.48998 30.7711 1.86275 31.1738 2.34434C31.6299 2.8897 31.8758 3.62735 32.3675 5.10263L34.75 12.25L38.5 10.375M27.25 17.875H32.875M10 12.25H29.5C32.6503 12.25 34.2254 12.25 35.4287 12.8631C36.4871 13.4024 37.3476 14.2629 37.8869 15.3213C38.5 16.5246 38.5 18.0997 38.5 21.25V26.3125C38.5 27.1837 38.5 27.6193 38.4279 27.9816C38.132 29.4692 36.9692 30.632 35.4816 30.9279C35.1193 31 34.6837 31 33.8125 31H32.875C30.8039 31 29.125 29.3211 29.125 27.25C29.125 26.7322 28.7053 26.3125 28.1875 26.3125H11.3125C10.7947 26.3125 10.375 26.7322 10.375 27.25C10.375 29.3211 8.69607 31 6.625 31H5.6875C4.81627 31 4.38066 31 4.01841 30.9279C2.53082 30.632 1.36796 29.4692 1.07206 27.9816C1 27.6193 1 27.1837 1 26.3125V21.25C1 18.0997 1 16.5246 1.61309 15.3213C2.15238 14.2629 3.01289 13.4024 4.0713 12.8631C5.27456 12.25 6.8497 12.25 10 12.25Z" stroke="#0056A7" stroke-width="2" stroke-linecap="round" stroke-linejoin="round"/>
</svg>
