<svg width="9" height="10" viewBox="0 0 9 10" fill="none" xmlns="http://www.w3.org/2000/svg">
<path d="M6.16667 2.4987V2.16536C6.16667 1.69865 6.16667 1.4653 6.07584 1.28704C5.99594 1.13024 5.86846 1.00275 5.71166 0.922859C5.5334 0.832031 5.30004 0.832031 4.83333 0.832031H4.16667C3.69996 0.832031 3.4666 0.832031 3.28834 0.922859C3.13154 1.00275 3.00406 1.13024 2.92416 1.28704C2.83333 1.4653 2.83333 1.69865 2.83333 2.16536V2.4987M3.66667 4.79036V6.8737M5.33333 4.79036V6.8737M0.75 2.4987H8.25M7.41667 2.4987V7.16536C7.41667 7.86543 7.41667 8.21546 7.28042 8.48285C7.16058 8.71806 6.96936 8.90928 6.73415 9.02912C6.46677 9.16536 6.11673 9.16536 5.41667 9.16536H3.58333C2.88327 9.16536 2.53323 9.16536 2.26585 9.02912C2.03064 8.90928 1.83942 8.71806 1.71958 8.48285C1.58333 8.21546 1.58333 7.86543 1.58333 7.16536V2.4987" stroke="white" stroke-linecap="round" stroke-linejoin="round"/>
</svg>
