<svg width="20" height="22" viewBox="0 0 20 22" fill="none" xmlns="http://www.w3.org/2000/svg">
<path d="M9.70031 21.7482H5.26031C3.99048 21.786 2.75748 21.3188 1.8315 20.449C0.905523 19.5793 0.362098 18.3779 0.320312 17.1082V4.88822C0.362098 3.61852 0.905523 2.41716 1.8315 1.54742C2.75748 0.677672 3.99048 0.21048 5.26031 0.24822H9.70031C10.9711 0.210441 12.2052 0.677323 13.1328 1.5468C14.0603 2.41628 14.6059 3.61763 14.6503 4.88822C14.6503 5.09072 14.5706 5.28507 14.4283 5.42919C14.2861 5.57331 14.0928 5.65559 13.8903 5.65822C13.6869 5.65563 13.4926 5.57367 13.3487 5.42983C13.2049 5.28598 13.1229 5.09163 13.1203 4.88822C13.0788 4.02157 12.6956 3.20667 12.0547 2.62192C11.4137 2.03716 10.5671 1.73019 9.70031 1.76822H5.26031C4.3942 1.73285 3.54911 2.04072 2.90872 2.62494C2.26833 3.20916 1.88438 4.0225 1.84031 4.88822V17.1082C1.88438 17.9739 2.26833 18.7873 2.90872 19.3715C3.54911 19.9557 4.3942 20.2636 5.26031 20.2282H9.70031C10.5671 20.2662 11.4137 19.9593 12.0547 19.3745C12.6956 18.7898 13.0788 17.9749 13.1203 17.1082C13.1229 16.9048 13.2049 16.7105 13.3487 16.5666C13.4926 16.4228 13.6869 16.3408 13.8903 16.3382C14.0928 16.3409 14.2861 16.4231 14.4283 16.5673C14.5706 16.7114 14.6503 16.9057 14.6503 17.1082C14.6059 18.3788 14.0603 19.5802 13.1328 20.4496C12.2052 21.3191 10.9711 21.786 9.70031 21.7482ZM18.9203 10.2382H8.86031L10.5303 8.56822C10.6697 8.42298 10.7475 8.2295 10.7475 8.02822C10.7475 7.82694 10.6697 7.63346 10.5303 7.48822C10.4596 7.41687 10.3755 7.36022 10.2829 7.32157C10.1902 7.28291 10.0907 7.26301 9.99031 7.26301C9.88989 7.26301 9.79046 7.28291 9.69777 7.32157C9.60509 7.36022 9.52098 7.41687 9.45031 7.48822L6.45031 10.4882C6.37896 10.5589 6.32232 10.643 6.28366 10.7357C6.24501 10.8284 6.2251 10.9278 6.2251 11.0282C6.2251 11.1286 6.24501 11.2281 6.28366 11.3208C6.32232 11.4134 6.37896 11.4976 6.45031 11.5682L9.45031 14.5682C9.52108 14.6391 9.60531 14.6951 9.69806 14.7328C9.7908 14.7706 9.89017 14.7895 9.99031 14.7882C10.0904 14.7889 10.1896 14.7698 10.2823 14.7321C10.3749 14.6943 10.4592 14.6386 10.5303 14.5682C10.6697 14.423 10.7475 14.2295 10.7475 14.0282C10.7475 13.8269 10.6697 13.6335 10.5303 13.4882L8.86031 11.8182H18.9203C19.0201 11.8182 19.1189 11.7986 19.2112 11.7604C19.3034 11.7222 19.3871 11.6662 19.4577 11.5956C19.5283 11.525 19.5843 11.4413 19.6225 11.3491C19.6607 11.2569 19.6803 11.158 19.6803 11.0582C19.6803 10.9584 19.6607 10.8596 19.6225 10.7674C19.5843 10.6752 19.5283 10.5914 19.4577 10.5208C19.3871 10.4502 19.3034 10.3943 19.2112 10.3561C19.1189 10.3179 19.0201 10.2982 18.9203 10.2982V10.2382Z" fill="#3E97FF"/>
</svg>
