<svg width="23" height="16" viewBox="0 0 23 16" fill="none" xmlns="http://www.w3.org/2000/svg">
<path d="M17.9983 4.39844C17.844 4.39844 17.7188 4.52116 17.7188 4.67227C17.7188 4.82338 17.844 4.9461 17.9983 4.9461C18.1525 4.9461 18.2778 4.82338 18.2778 4.67227C18.2778 4.52116 18.1525 4.39844 17.9983 4.39844Z" stroke="#585C67" stroke-width="1.2"/>
<path d="M13.8266 4.67341C13.8266 2.44943 15.6965 0.6 17.9969 0.6C20.2973 0.6 22.1672 2.44943 22.1672 4.67341C22.1672 6.89739 20.2973 8.74682 17.9969 8.74682C15.6965 8.74682 13.8266 6.89739 13.8266 4.67341ZM14.3223 4.67341C14.3223 6.67722 15.9818 8.28557 17.9969 8.28557C20.0119 8.28557 21.6715 6.67722 21.6715 4.67341C21.6715 2.6696 20.0119 1.06125 17.9969 1.06125C15.9818 1.06125 14.3223 2.6696 14.3223 4.67341Z" stroke="#585C67" stroke-width="1.2"/>
<path d="M16.0805 4.66978L16.1476 4.67373L16.0805 4.67767C16.0805 4.67636 16.0805 4.67504 16.0805 4.67373C16.0805 4.67241 16.0805 4.6711 16.0805 4.66978ZM17.0321 6.28407L17.1433 6.12006L17.0535 6.29603C17.0463 6.29209 17.0392 6.2881 17.0321 6.28407ZM18.9386 6.29603L18.849 6.12041L18.9599 6.28409C18.9529 6.28812 18.9458 6.2921 18.9386 6.29603ZM19.9116 4.67767L19.8446 4.67373L19.9116 4.66979C19.9116 4.6711 19.9116 4.67242 19.9116 4.67373C19.9116 4.67504 19.9116 4.67636 19.9116 4.67767ZM17.0535 3.0514L17.1431 3.22704L17.0322 3.06335C17.0392 3.05932 17.0464 3.05534 17.0535 3.0514ZM18.8488 3.2274L18.9387 3.05141C18.9458 3.05535 18.9529 3.05934 18.96 3.06337L18.8488 3.2274Z" stroke="#585C67" stroke-width="1.2"/>
<path d="M7.79079 8.39578C9.78349 8.39578 11.287 6.61047 11.287 4.55414C11.287 2.49781 9.78349 0.7125 7.79079 0.7125C5.79808 0.7125 4.29453 2.49781 4.29453 4.55414C4.29453 6.61047 5.79808 8.39578 7.79079 8.39578Z" stroke="#585C67" stroke-width="1.2"/>
<path d="M7.79251 14.4859C8.37633 14.4859 8.96394 14.515 9.54487 14.5437C9.65305 14.5491 9.761 14.5544 9.86865 14.5595C10.5421 14.5917 11.211 14.6164 11.7979 14.5746C12.3717 14.5336 12.9585 14.4246 13.4126 14.1219C13.917 13.7857 14.185 13.2614 14.185 12.5892C14.185 11.2892 13.2248 10.2389 12.0602 9.55119C10.8709 8.84883 9.31663 8.42344 7.79251 8.42344C6.2684 8.42344 4.71411 8.84883 3.52478 9.55119C2.36025 10.2389 1.4 11.2892 1.4 12.5892C1.4 13.2614 1.66801 13.7857 2.17242 14.1219C2.62654 14.4246 3.21331 14.5336 3.78716 14.5746C4.374 14.6164 5.04297 14.5917 5.71638 14.5595C5.82403 14.5544 5.93198 14.5491 6.04016 14.5437C6.62109 14.515 7.2087 14.4859 7.79251 14.4859Z" stroke="#585C67" stroke-width="1.2"/>
</svg>
