<svg width="14" height="15" viewBox="0 0 14 15" fill="none" xmlns="http://www.w3.org/2000/svg">
<path opacity="0.3" d="M12.6721 4.83303L8.83875 1.4997C8.32851 1.06134 7.67809 0.820312 7.00541 0.820312C6.33273 0.820313 5.68232 1.06134 5.17208 1.4997L1.33208 4.83303C1.01582 5.10961 0.762811 5.45103 0.590258 5.8341C0.417704 6.21717 0.32965 6.6329 0.33208 7.05303V12.633C0.332046 13.0363 0.490845 13.4233 0.774089 13.7102C1.05733 13.9972 1.44222 14.1611 1.84541 14.1664H4.11208C4.31536 14.1699 4.5173 14.1328 4.70606 14.0573C4.89481 13.9817 5.06657 13.8692 5.21126 13.7264C5.35595 13.5836 5.47066 13.4133 5.54865 13.2255C5.62663 13.0378 5.66633 12.8363 5.66541 12.633V9.75303C5.66017 9.42234 5.77052 9.10018 5.97742 8.84216C6.18433 8.58413 6.47481 8.40642 6.79875 8.3397C6.99376 8.30192 7.19475 8.3082 7.38703 8.35807C7.57931 8.40794 7.75802 8.50014 7.91009 8.62793C8.06217 8.75572 8.18377 8.91588 8.266 9.0967C8.34824 9.27752 8.38904 9.47442 8.38541 9.67303V12.633C8.3836 13.0345 8.54 13.4205 8.82075 13.7075C9.1015 13.9945 9.484 14.1594 9.88541 14.1664H12.1521C12.5553 14.1611 12.9402 13.9972 13.2234 13.7102C13.5066 13.4233 13.6654 13.0363 13.6654 12.633V7.04636C13.6669 6.628 13.579 6.21415 13.4077 5.83246C13.2364 5.45077 12.9856 5.11004 12.6721 4.83303Z" fill="#7E8299"/>
</svg>
