<svg width="22" height="22" viewBox="0 0 22 22" fill="none" xmlns="http://www.w3.org/2000/svg">
<path d="M16.2 13.0016C16.477 13.0016 16.6155 13.0016 16.7278 13.0631C16.8204 13.1139 16.9065 13.2092 16.9478 13.3064C16.9978 13.4242 16.9852 13.5496 16.96 13.8003C16.8296 15.1004 16.3822 16.3531 15.6518 17.4462C14.7727 18.7618 13.5233 19.7872 12.0615 20.3927C10.5997 20.9982 8.99113 21.1566 7.43928 20.8479C5.88743 20.5392 4.46197 19.7773 3.34315 18.6585C2.22433 17.5397 1.4624 16.1142 1.15372 14.5624C0.84504 13.0105 1.00347 11.402 1.60897 9.94017C2.21447 8.47836 3.23985 7.22893 4.55544 6.34988C5.64856 5.61948 6.90125 5.17204 8.20131 5.0416C8.45207 5.01644 8.57745 5.00386 8.69528 5.05385C8.79249 5.09509 8.88776 5.18128 8.9385 5.27388C9 5.38614 9 5.52464 9 5.80164V12.2016C9 12.4817 9 12.6217 9.0545 12.7286C9.10244 12.8227 9.17893 12.8992 9.27301 12.9471C9.37996 13.0016 9.51998 13.0016 9.8 13.0016H16.2Z" stroke="#585C67" stroke-width="2" stroke-linecap="round" stroke-linejoin="round"/>
<path d="M13 1.80164C13 1.52463 13 1.38613 13.0615 1.27388C13.1122 1.18127 13.2075 1.09508 13.3047 1.05384C13.4225 1.00385 13.5479 1.01643 13.7987 1.04158C15.6271 1.22498 17.346 2.03394 18.6569 3.34478C19.9677 4.65562 20.7767 6.37453 20.9601 8.20294C20.9852 8.45371 20.9978 8.57909 20.9478 8.69692C20.9066 8.79412 20.8204 8.88939 20.7278 8.94013C20.6155 9.00163 20.477 9.00163 20.2 9.00163L13.8 9.00164C13.52 9.00164 13.38 9.00164 13.273 8.94714C13.1789 8.8992 13.1024 8.82271 13.0545 8.72863C13 8.62167 13 8.48166 13 8.20163V1.80164Z" stroke="#585C67" stroke-width="2" stroke-linecap="round" stroke-linejoin="round"/>
</svg>
