<svg width="20" height="20" viewBox="0 0 20 20" fill="none" xmlns="http://www.w3.org/2000/svg">
<path opacity="0.3" d="M18.7073 16.8047L15.8015 14.0547C15.249 14.766 14.5869 15.3849 13.8398 15.888L16.8282 18.7297C16.9538 18.8764 17.1092 18.9949 17.284 19.0772C17.4588 19.1594 17.6491 19.2037 17.8423 19.207C18.0354 19.2103 18.2271 19.1726 18.4047 19.0964C18.5822 19.0201 18.7415 18.9071 18.8721 18.7647C19.0027 18.6224 19.1017 18.4539 19.1624 18.2705C19.2231 18.087 19.2441 17.8928 19.2242 17.7007C19.2043 17.5085 19.1439 17.3227 19.0469 17.1556C18.9499 16.9885 18.8185 16.8439 18.6615 16.7314L18.7073 16.8047Z" fill="#181C32"/>
<path d="M9.21094 0.835938C7.57925 0.835937 5.98419 1.31979 4.62749 2.22631C3.27078 3.13283 2.21336 4.42131 1.58894 5.9288C0.964512 7.43629 0.801135 9.09509 1.11946 10.6954C1.43779 12.2958 2.22353 13.7658 3.37731 14.9196C4.53109 16.0734 6.0011 16.8591 7.60145 17.1774C9.20179 17.4957 10.8606 17.3324 12.3681 16.7079C13.8756 16.0835 15.164 15.0261 16.0706 13.6694C16.9771 12.3127 17.4609 10.7176 17.4609 9.08594C17.4609 6.8979 16.5917 4.79948 15.0446 3.25231C13.4974 1.70513 11.399 0.835938 9.21094 0.835938ZM9.21094 14.9159C8.06008 14.9159 6.93505 14.5748 5.97801 13.9356C5.02098 13.2964 4.27491 12.3878 3.83407 11.3248C3.39324 10.2617 3.27744 9.09176 3.50129 7.96288C3.72515 6.834 4.27862 5.79681 5.09176 4.98239C5.9049 4.16797 6.94122 3.61287 8.06974 3.38724C9.19827 3.1616 10.3684 3.27557 11.4321 3.71473C12.4959 4.15389 13.4056 4.89853 14.0463 5.85456C14.687 6.81058 15.03 7.93508 15.0318 9.08594C15.0342 9.85145 14.8853 10.6099 14.5938 11.3177C14.3022 12.0255 13.8737 12.6688 13.3328 13.2105C12.792 13.7522 12.1494 14.1818 11.442 14.4744C10.7347 14.7671 9.97646 14.9171 9.21094 14.9159Z" fill="#181C32"/>
</svg>
