<svg width="44" height="39" viewBox="0 0 44 39" fill="none" xmlns="http://www.w3.org/2000/svg">
<path d="M39.1875 3.9375H37.625V3.26563C37.6209 2.61628 37.3611 1.9947 36.902 1.53553C36.4428 1.07637 35.8212 0.816597 35.1719 0.8125H30.7031C30.0538 0.816597 29.4322 1.07637 28.973 1.53553C28.5139 1.9947 28.2541 2.61628 28.25 3.26563V3.9375H15.75V3.26563C15.7459 2.61628 15.4861 1.9947 15.027 1.53553C14.5678 1.07637 13.9462 0.816597 13.2969 0.8125H8.82812C8.17878 0.816597 7.5572 1.07637 7.09803 1.53553C6.63887 1.9947 6.3791 2.61628 6.375 3.26563V3.9375H4.8125C3.5693 3.9375 2.37701 4.43136 1.49794 5.31044C0.61886 6.18951 0.125 7.3818 0.125 8.625V28.9375C0.125 30.1807 0.61886 31.373 1.49794 32.2521C2.37701 33.1311 3.5693 33.625 4.8125 33.625V35.1875C4.8125 36.0163 5.14174 36.8112 5.72779 37.3972C6.31384 37.9833 7.1087 38.3125 7.9375 38.3125H13.1719C13.8125 38.3035 14.4349 38.0978 14.9547 37.7233C15.4746 37.3488 15.8668 36.8236 16.0781 36.2188L16.875 33.625H27.125L27.9844 36.2188C28.1957 36.8236 28.5879 37.3488 29.1078 37.7233C29.6276 38.0978 30.25 38.3035 30.8906 38.3125H36.0625C36.8913 38.3125 37.6862 37.9833 38.2722 37.3972C38.8583 36.8112 39.1875 36.0163 39.1875 35.1875V33.625C40.4307 33.625 41.623 33.1311 42.5021 32.2521C43.3811 31.373 43.875 30.1807 43.875 28.9375V8.625C43.875 7.3818 43.3811 6.18951 42.5021 5.31044C41.623 4.43136 40.4307 3.9375 39.1875 3.9375ZM31.375 3.9375H34.5V5.5H31.375V3.9375ZM9.5 3.9375H12.625V5.5H9.5V3.9375ZM13.0625 35.1875H7.9375V33.625H13.5781L13.0625 35.1875ZM36.0625 35.1875H30.9375L30.4219 33.625H36.0625V35.1875ZM40.75 28.9375C40.75 29.3519 40.5854 29.7493 40.2924 30.0424C39.9993 30.3354 39.6019 30.5 39.1875 30.5H4.8125C4.3981 30.5 4.00067 30.3354 3.70765 30.0424C3.41462 29.7493 3.25 29.3519 3.25 28.9375V8.625C3.25 8.2106 3.41462 7.81317 3.70765 7.52015C4.00067 7.22712 4.3981 7.0625 4.8125 7.0625H6.54688C6.72776 7.52087 7.04167 7.91463 7.44823 8.19309C7.85478 8.47155 8.33536 8.62197 8.82812 8.625H13.2969C13.7896 8.62197 14.2702 8.47155 14.6768 8.19309C15.0833 7.91463 15.3972 7.52087 15.5781 7.0625H28.4219C28.6028 7.52087 28.9167 7.91463 29.3232 8.19309C29.7298 8.47155 30.2104 8.62197 30.7031 8.625H35.1719C35.6646 8.62197 36.1452 8.47155 36.5518 8.19309C36.9583 7.91463 37.2722 7.52087 37.4531 7.0625H39.1875C39.6019 7.0625 39.9993 7.22712 40.2924 7.52015C40.5854 7.81317 40.75 8.2106 40.75 8.625V28.9375Z" fill="#CD9F50"/>
<path d="M34.3123 17.9997C34.7267 18.0515 35.1447 17.9365 35.4744 17.6801C35.804 17.4237 36.0183 17.0469 36.0701 16.6325C36.1219 16.2181 36.007 15.8001 35.7506 15.4704C35.4942 15.1408 35.1173 14.9265 34.7029 14.8747C33.8411 14.7618 32.9652 14.83 32.1311 15.0748C31.2971 15.3196 30.5233 15.7358 29.8592 16.2965C29.3351 16.7734 28.9149 17.3532 28.6248 17.9997H15.3748C15.0994 17.3614 14.6951 16.7869 14.1873 16.3122C13.5208 15.7445 12.7423 15.3231 11.9025 15.0755C11.0627 14.8279 10.1803 14.7594 9.31232 14.8747C9.10713 14.9003 8.909 14.9661 8.72924 15.0684C8.54948 15.1706 8.39162 15.3072 8.26467 15.4704C8.13771 15.6337 8.04415 15.8203 7.98932 16.0197C7.9345 16.2191 7.91948 16.4273 7.94513 16.6325C7.97078 16.8377 8.03659 17.0358 8.13881 17.2156C8.24103 17.3953 8.37765 17.5532 8.54088 17.6801C8.70411 17.8071 8.89074 17.9007 9.09013 17.9555C9.28952 18.0103 9.49775 18.0253 9.70294 17.9997C10.1214 17.9381 10.5481 17.9661 10.9549 18.082C11.3616 18.1978 11.7391 18.3988 12.0623 18.6715C12.3581 18.8843 12.5598 19.2036 12.6248 19.5622C12.5636 19.9264 12.3615 20.2519 12.0623 20.4684C11.7378 20.7385 11.3598 20.9366 10.953 21.0497C10.5463 21.1628 10.1203 21.1884 9.70294 21.1247C9.49632 21.0963 9.2861 21.1095 9.08469 21.1637C8.88327 21.2178 8.69473 21.3117 8.53018 21.4398C8.36562 21.568 8.22839 21.7278 8.12657 21.9098C8.02475 22.0918 7.9604 22.2924 7.93732 22.4997C7.91116 22.7051 7.92611 22.9137 7.98128 23.1133C8.03645 23.3129 8.13074 23.4995 8.25868 23.6623C8.38662 23.8252 8.54566 23.961 8.72654 24.0618C8.90742 24.1626 9.10653 24.2265 9.31232 24.2497C9.58291 24.2657 9.85422 24.2657 10.1248 24.2497C11.6086 24.2799 13.0527 23.7689 14.1873 22.8122C14.7118 22.3382 15.1367 21.7645 15.4373 21.1247H28.6561C28.9489 21.7782 29.3746 22.3635 29.9061 22.8434C31.0206 23.7676 32.4271 24.266 33.8748 24.2497C34.1506 24.2652 34.4271 24.2652 34.7029 24.2497C35.1173 24.1979 35.4942 23.9836 35.7506 23.6539C36.007 23.3243 36.1219 22.9063 36.0701 22.4919C36.0183 22.0775 35.804 21.7006 35.4744 21.4442C35.1447 21.1878 34.7267 21.0729 34.3123 21.1247C33.8914 21.1875 33.462 21.1601 33.0525 21.0443C32.643 20.9285 32.2629 20.7268 31.9373 20.4528C31.6415 20.24 31.4398 19.9207 31.3748 19.5622C31.436 19.1979 31.6381 18.8724 31.9373 18.6559C32.2642 18.3846 32.6449 18.1858 33.0543 18.0727C33.4638 17.9596 33.8925 17.9347 34.3123 17.9997Z" fill="#CD9F50"/>
</svg>
