<svg width="6" height="11" viewBox="0 0 6 11" fill="none" xmlns="http://www.w3.org/2000/svg">
<path d="M0.8932 10.1662C0.760784 10.167 0.631137 10.1283 0.520791 10.0551C0.410444 9.9819 0.324397 9.8775 0.27362 9.75521C0.222842 9.63291 0.209634 9.49826 0.23568 9.36843C0.261727 9.2386 0.325847 9.11946 0.419867 9.02622L3.89987 5.49955L0.419867 2.05288C0.357708 1.99073 0.3084 1.91693 0.27476 1.83572C0.24112 1.7545 0.223805 1.66746 0.223805 1.57955C0.223805 1.49164 0.24112 1.4046 0.27476 1.32338C0.3084 1.24217 0.357708 1.16838 0.419867 1.10622C0.482026 1.04406 0.555819 0.994751 0.637034 0.961111C0.718248 0.927471 0.805294 0.910156 0.8932 0.910156C0.981106 0.910156 1.06815 0.927471 1.14937 0.961111C1.23058 0.994751 1.30437 1.04406 1.36653 1.10622L5.3332 5.05955C5.45737 5.18446 5.52706 5.35343 5.52706 5.52955C5.52706 5.70567 5.45737 5.87464 5.3332 5.99955L1.38653 9.94622C1.3242 10.0153 1.24811 10.0705 1.16315 10.1084C1.07818 10.1463 0.986229 10.166 0.8932 10.1662Z" fill="#A1A5B7"/>
</svg>
