<svg width="44" height="46" viewBox="0 0 44 46" fill="none" xmlns="http://www.w3.org/2000/svg">
<path d="M43.6406 8.93568C43.6347 8.52354 43.4663 8.13042 43.1719 7.84193L36.6562 1.40443C36.3617 1.13159 35.9733 0.982627 35.5719 0.988446C35.1704 0.994264 34.7865 1.15442 34.5 1.43568L26 10.0763C25.7118 9.80652 25.3322 9.65579 24.9375 9.65443C24.7308 9.65529 24.5262 9.69716 24.3358 9.77763C24.1454 9.85809 23.9728 9.97554 23.8281 10.1232L19.5937 14.4669C19.307 14.7643 19.1497 15.1632 19.1562 15.5763C19.1571 15.783 19.199 15.9875 19.2794 16.178C19.3599 16.3684 19.4773 16.541 19.625 16.6857L19.9062 16.9513L18.3437 20.2482C18.2011 20.5427 18.1545 20.8746 18.2106 21.1969C18.2667 21.5193 18.4225 21.816 18.6562 22.0451L23 26.2951C23.2935 26.578 23.686 26.735 24.0937 26.7326C24.3431 26.7296 24.5887 26.6709 24.8125 26.5607L28.0781 24.8888L28.3437 25.1544C28.489 25.3009 28.6618 25.4171 28.8522 25.4965C29.0426 25.5758 29.2468 25.6166 29.4531 25.6166C29.6594 25.6166 29.8636 25.5758 30.054 25.4965C30.2444 25.4171 30.4172 25.3009 30.5625 25.1544L34.7969 20.8107C35.0739 20.5201 35.2284 20.134 35.2284 19.7326C35.2284 19.3311 35.0739 18.945 34.7969 18.6544L43.25 9.99818C43.5084 9.70529 43.6478 9.32622 43.6406 8.93568ZM29.3594 21.9044C29.124 21.6902 28.8287 21.5529 28.5132 21.511C28.1977 21.4691 27.8769 21.5246 27.5937 21.6701L24.3281 23.3419L21.6094 20.6857L23.1719 17.3732C23.3112 17.0855 23.359 16.7619 23.3087 16.4462C23.2584 16.1304 23.1125 15.8377 22.8906 15.6076L24.9531 13.5138L31.3906 19.7638L29.3594 21.9044ZM32.4844 16.4982L28.25 12.2482L35.5937 4.73256L39.875 8.93568L32.4844 16.4982Z" fill="#AC50CD"/>
<path d="M14.3907 22.0286C14.0979 21.7376 13.7019 21.5742 13.2891 21.5742C12.8763 21.5742 12.4803 21.7376 12.1875 22.0286L6.89065 27.4817C6.60903 27.7731 6.4516 28.1624 6.4516 28.5676C6.4516 28.9729 6.60903 29.3622 6.89065 29.6536L0.562526 36.138C0.417711 36.284 0.303141 36.4571 0.225384 36.6475C0.147626 36.8378 0.108212 37.0417 0.109401 37.2473C0.115272 37.6595 0.283754 38.0526 0.578151 38.3411L7.09378 44.7005C7.38481 44.9891 7.77762 45.1519 8.18753 45.1536C8.59967 45.1477 8.99279 44.9792 9.28128 44.6848L15.6094 38.2005C15.8976 38.4702 16.2772 38.621 16.6719 38.6223C16.8771 38.6174 17.0793 38.5721 17.267 38.489C17.4546 38.4058 17.6241 38.2866 17.7656 38.138L23.0625 32.7161C23.3535 32.4233 23.5169 32.0273 23.5169 31.6145C23.5169 31.2017 23.3535 30.8057 23.0625 30.513L14.3907 22.0286ZM8.14065 41.3723L3.89065 37.2005L9.1094 31.8411L13.3907 36.013L8.14065 41.3723ZM16.6406 34.8411L10.2032 28.5911L13.3282 25.4661L19.7656 31.7161L16.6406 34.8411Z" fill="#AC50CD"/>
</svg>
