<svg width="44" height="44" viewBox="0 0 44 44" fill="none" xmlns="http://www.w3.org/2000/svg">
<path d="M22 0.125C17.6735 0.125 13.4442 1.40795 9.84691 3.8116C6.24959 6.21526 3.44581 9.63167 1.79014 13.6288C0.134478 17.6259 -0.29872 22.0243 0.545332 26.2676C1.38938 30.5109 3.47277 34.4087 6.53205 37.468C9.59132 40.5272 13.4891 42.6106 17.7324 43.4547C21.9757 44.2987 26.3741 43.8655 30.3712 42.2099C34.3683 40.5542 37.7848 37.7504 40.1884 34.1531C42.5921 30.5558 43.875 26.3265 43.875 22C43.875 16.1984 41.5703 10.6344 37.468 6.53204C33.3656 2.42968 27.8016 0.125 22 0.125ZM22 40.75C18.2916 40.75 14.6665 39.6503 11.5831 37.5901C8.49965 35.5298 6.09641 32.6014 4.67727 29.1753C3.25813 25.7492 2.88681 21.9792 3.61029 18.3421C4.33376 14.7049 6.11952 11.364 8.74176 8.74175C11.364 6.11951 14.7049 4.33375 18.3421 3.61028C21.9792 2.8868 25.7492 3.25812 29.1753 4.67726C32.6014 6.0964 35.5298 8.49964 37.5901 11.5831C39.6503 14.6665 40.75 18.2916 40.75 22C40.75 26.9728 38.7746 31.7419 35.2583 35.2583C31.742 38.7746 26.9728 40.75 22 40.75Z" fill="#50A8CD"/>
<path d="M22 6.375C18.9097 6.375 15.8887 7.29139 13.3192 9.00829C10.7497 10.7252 8.74701 13.1655 7.56439 16.0206C6.38177 18.8757 6.07234 22.0173 6.67524 25.0483C7.27813 28.0792 8.76627 30.8633 10.9515 33.0485C13.1367 35.2337 15.9208 36.7219 18.9517 37.3248C21.9827 37.9277 25.1243 37.6182 27.9794 36.4356C30.8345 35.253 33.2748 33.2503 34.9917 30.6808C36.7086 28.1113 37.625 25.0903 37.625 22C37.625 17.856 35.9788 13.8817 33.0485 10.9515C30.1183 8.0212 26.144 6.375 22 6.375ZM9.50001 22C9.5048 21.4774 9.54132 20.9556 9.60938 20.4375H15.9688C15.677 21.4587 15.677 22.5413 15.9688 23.5625H9.60938C9.54132 23.0444 9.5048 22.5226 9.50001 22ZM18.875 22C18.875 21.3819 19.0583 20.7777 19.4017 20.2638C19.745 19.7499 20.2331 19.3494 20.8041 19.1129C21.3751 18.8764 22.0035 18.8145 22.6097 18.935C23.2159 19.0556 23.7727 19.3533 24.2097 19.7903C24.6468 20.2273 24.9444 20.7842 25.065 21.3903C25.1855 21.9965 25.1237 22.6249 24.8871 23.1959C24.6506 23.7669 24.2501 24.255 23.7362 24.5983C23.2223 24.9417 22.6181 25.125 22 25.125C21.1712 25.125 20.3763 24.7958 19.7903 24.2097C19.2042 23.6237 18.875 22.8288 18.875 22ZM28.0313 20.4375H34.3906C34.5364 21.4741 34.5364 22.5259 34.3906 23.5625H28.0313C28.323 22.5413 28.323 21.4587 28.0313 20.4375ZM22 9.5C24.4883 9.50193 26.9194 10.2465 28.982 11.6383C31.0447 13.0301 32.645 15.0058 33.5781 17.3125H26.6875C26.5223 17.3196 26.3591 17.3512 26.2031 17.4063C25.0629 16.3408 23.5606 15.7481 22 15.7481C20.4394 15.7481 18.9371 16.3408 17.7969 17.4063C17.6409 17.3512 17.4777 17.3196 17.3125 17.3125H10.4219C11.355 15.0058 12.9553 13.0301 15.018 11.6383C17.0806 10.2465 19.5117 9.50193 22 9.5ZM10.4219 26.6875H17.3125V33.5781C15.7611 32.9495 14.3517 32.0156 13.1681 30.8319C11.9844 29.6483 11.0505 28.2389 10.4219 26.6875ZM20.4375 34.3906V28.0312C21.4587 28.323 22.5413 28.323 23.5625 28.0312V34.3906C22.5259 34.5364 21.4741 34.5364 20.4375 34.3906ZM26.6875 33.5781V26.6875H33.5781C32.9495 28.2389 32.0156 29.6483 30.8319 30.8319C29.6483 32.0156 28.2389 32.9495 26.6875 33.5781Z" fill="#50A8CD"/>
</svg>
